# 3ds Max Wavefront OBJ Exporter v0.97b - (c)2007 guruware
# File Created: 03.10.2017 14:21:56

mtllib staff bottom.mtl

#
# object MeguminStaff
#

v  0.7050 0.0000 0.1728
v  -0.0000 0.0000 0.0000
v  0.7050 0.0000 -0.1728
v  0.2020 0.0000 -0.2773
v  -0.2020 0.0000 -0.2773
v  -0.7050 0.0000 -0.1728
v  -0.7050 0.0000 0.1728
v  -0.2020 0.0000 0.2773
v  0.2020 0.0000 0.2773
v  2.2963 3.1975 0.2709
v  2.2963 3.1975 -0.2709
v  0.9452 6.3951 -0.2709
v  0.9452 6.3951 0.2709
v  0.2709 6.3951 -0.9452
v  0.6581 3.1975 -0.4614
v  -0.6581 3.1975 -0.4614
v  -0.2709 6.3951 -0.9452
v  -2.2963 3.1975 -0.2709
v  -0.9452 6.3951 -0.2709
v  -2.2963 3.1975 0.2709
v  -0.9452 6.3951 0.2709
v  -0.2709 6.3951 0.9452
v  -0.6581 3.1975 0.4614
v  0.6581 3.1975 0.4614
v  0.2709 6.3951 0.9452
# 25 vertices

vn 0.4782 -0.7156 0.5092
vn 0.0000 -1.0000 -0.0000
vn 0.4769 -0.7058 -0.5239
vn 0.0658 -0.7100 -0.7011
vn -0.0566 -0.7144 -0.6974
vn -0.4782 -0.7156 -0.5092
vn -0.4769 -0.7058 0.5239
vn -0.0658 -0.7100 0.7011
vn 0.0566 -0.7144 0.6974
vn 0.9172 0.3876 0.0929
vn 0.9172 0.3876 -0.0929
vn 0.8960 0.2062 -0.3932
vn 0.8960 0.2062 0.3932
vn 0.4707 0.1023 -0.8764
vn 0.0646 -0.1081 -0.9920
vn -0.0624 -0.1043 -0.9926
vn -0.0236 -0.1467 -0.9889
vn 0.0236 -0.1467 -0.9889
vn -0.4707 0.1023 -0.8764
vn -0.9172 0.3876 -0.0929
vn -0.8960 0.2062 -0.3932
vn -0.9172 0.3876 0.0929
vn -0.8960 0.2062 0.3932
vn -0.4707 0.1023 0.8764
vn -0.0646 -0.1081 0.9920
vn 0.0624 -0.1043 0.9926
vn 0.0236 -0.1467 0.9889
vn -0.0236 -0.1467 0.9889
vn 0.4707 0.1023 0.8764
vn 0.5804 -0.3288 -0.7450
vn 0.5836 -0.3252 0.7440
vn -0.5836 -0.3252 -0.7440
vn -0.5804 -0.3288 0.7450
# 33 vertex normals

vt 0.2483 0.9261 0.0000
vt 0.2157 0.9499 0.0000
vt 0.1831 0.9261 0.0000
vt 0.1772 0.9431 0.0000
vt 0.1772 0.9567 0.0000
vt 0.1917 0.9736 0.0000
vt 0.2397 0.9736 0.0000
vt 0.2542 0.9567 0.0000
vt 0.2542 0.9431 0.0000
vt 0.2265 0.8954 0.0000
vt 0.2049 0.8954 0.0000
vt 0.2049 0.8646 0.0000
vt 0.2265 0.8646 0.0000
vt 0.1520 0.8645 0.0000
vt 0.1398 0.8953 0.0000
vt 0.0875 0.8951 0.0000
vt 0.1043 0.8644 0.0000
vt 0.4022 0.8643 0.0000
vt 0.4168 0.8951 0.0000
vt 0.3754 0.8643 0.0000
vt 0.3818 0.8951 0.0000
vt 0.3539 0.8644 0.0000
vt 0.3271 0.8644 0.0000
vt 0.3439 0.8951 0.0000
vt 0.2916 0.8953 0.0000
vt 0.2794 0.8645 0.0000
vt 0.1203 0.9260 0.0000
vt 0.1042 0.9260 0.0000
vt 0.0843 0.9259 0.0000
vt 0.0224 0.8950 0.0000
vt 0.3729 0.9259 0.0000
vt 0.3532 0.9259 0.0000
vt 0.3272 0.9260 0.0000
vt 0.3111 0.9260 0.0000
# 34 texture coords

o MeguminStaff
g MeguminStaff
usemtl Megumin_staff
s off
f 1/1/1 2/2/2 3/3/3 
f 3/3/3 2/2/2 4/4/4 
f 4/4/4 2/2/2 5/5/5 
f 5/5/5 2/2/2 6/6/6 
f 6/6/6 2/2/2 7/7/7 
f 7/7/7 2/2/2 8/8/8 
f 8/8/8 2/2/2 9/9/9 
f 9/9/9 2/2/2 1/1/1 
f 10/10/10 11/11/11 12/12/12 13/13/13 
f 12/12/12 11/11/11 14/14/14 
f 15/15/15 16/16/16 17/17/17 14/14/18 
f 17/18/19 18/19/20 19/20/21 
f 18/19/20 20/21/22 21/22/23 19/20/21 
f 21/22/23 20/21/22 22/23/24 
f 23/24/25 24/25/26 25/26/27 22/23/28 
f 25/26/29 10/10/10 13/13/13 
f 1/1/1 3/3/3 11/11/30 10/10/31 
f 3/3/3 4/27/4 15/15/15 11/11/30 
f 4/27/4 5/28/5 16/16/16 15/15/15 
f 5/28/5 6/29/6 18/30/32 16/16/16 
f 6/31/6 7/32/7 20/21/33 18/19/32 
f 7/32/7 8/33/8 23/24/25 20/21/33 
f 8/33/8 9/34/9 24/25/26 23/24/25 
f 9/34/9 1/1/1 10/10/31 24/25/26 
f 11/11/30 15/15/15 14/14/18 
f 17/17/17 16/16/16 18/30/32 
f 20/21/33 23/24/25 22/23/28 
f 25/26/27 24/25/26 10/10/31 
# 12 polygons - 16 triangles

