# 3ds Max Wavefront OBJ Exporter v0.97b - (c)2007 guruware
# File Created: 03.10.2017 14:24:39

mtllib staff middle 3.mtl

#
# object MeguminStaff
#

v  0.6867 14.7013 -0.1968
v  0.8841 29.4026 -0.2534
v  0.8841 29.4026 0.2534
v  0.6867 14.7013 0.1968
v  0.1968 14.7013 -0.6867
v  0.2534 29.4026 -0.8841
v  -0.1968 14.7013 -0.6867
v  -0.2534 29.4026 -0.8841
v  -0.6867 14.7013 -0.1968
v  -0.8841 29.4026 -0.2534
v  -0.6867 14.7013 0.1968
v  -0.8841 29.4026 0.2534
v  -0.1968 14.7013 0.6867
v  -0.2534 29.4026 0.8841
v  0.1968 14.7013 0.6867
v  0.2534 29.4026 0.8841
# 16 vertices

vn 0.9236 0.0092 -0.3833
vn 0.9238 -0.0144 -0.3827
vn 0.9238 -0.0144 0.3827
vn 0.9236 0.0092 0.3833
vn 0.3833 0.0092 -0.9236
vn 0.3827 -0.0144 -0.9238
vn -0.3833 0.0092 -0.9236
vn -0.3827 -0.0144 -0.9238
vn -0.9236 0.0092 -0.3833
vn -0.9238 -0.0144 -0.3827
vn -0.9236 0.0092 0.3833
vn -0.9238 -0.0144 0.3827
vn -0.3833 0.0092 0.9236
vn -0.3827 -0.0144 0.9238
vn 0.3833 0.0092 0.9236
vn 0.3827 -0.0144 0.9238
# 16 vertex normals

vt 0.2079 0.7846 0.0000
vt 0.2056 0.6430 0.0000
vt 0.2258 0.6430 0.0000
vt 0.2235 0.7846 0.0000
vt 0.1575 0.7845 0.0000
vt 0.1579 0.6430 0.0000
vt 0.1109 0.7844 0.0000
vt 0.1152 0.6428 0.0000
vt 0.3707 0.7844 0.0000
vt 0.3697 0.6428 0.0000
vt 0.3948 0.6427 0.0000
vt 0.3901 0.7843 0.0000
vt 0.3550 0.7844 0.0000
vt 0.3496 0.6428 0.0000
vt 0.3280 0.7844 0.0000
vt 0.3204 0.6428 0.0000
vt 0.2739 0.7845 0.0000
vt 0.2735 0.6430 0.0000
# 18 texture coords

o MeguminStaff
g MeguminStaff
usemtl Megumin_staff
s off
f 1/1/1 2/2/2 3/3/3 4/4/4 
f 5/5/5 6/6/6 2/2/2 1/1/1 
f 7/7/7 8/8/8 6/6/6 5/5/5 
f 9/9/9 10/10/10 8/11/8 7/12/7 
f 11/13/11 12/14/12 10/10/10 9/9/9 
f 13/15/13 14/16/14 12/14/12 11/13/11 
f 15/17/15 16/18/16 14/16/14 13/15/13 
f 4/4/4 3/3/3 16/18/16 15/17/15 
# 8 polygons

