# 3ds Max Wavefront OBJ Exporter v0.97b - (c)2007 guruware
# File Created: 03.10.2017 14:19:37

mtllib staff top middle.mtl

#
# object MeguminStaff
#

v  -4.3070 70.3754 0.0001
v  -4.4644 70.6935 0.1163
v  -4.4644 70.6935 -0.1161
v  -4.3521 70.4665 -0.1181
v  -4.2619 70.2843 -0.1181
v  -4.1496 70.0574 -0.0178
v  -4.1496 70.0574 0.0180
v  -4.2619 70.2843 0.1182
v  -4.3521 70.4665 0.1182
v  1.1659 56.9675 0.3341
v  1.1659 56.9675 -0.3341
v  1.1387 57.9772 -0.4287
v  1.1387 57.9772 0.4287
v  0.3341 56.9675 -1.1659
v  0.4579 58.4551 -1.4961
v  -0.3341 56.9675 -1.1659
v  -1.2114 59.2435 -1.4961
v  -1.1659 56.9675 -0.3341
v  -2.8775 59.6569 -0.2262
v  -1.1659 56.9675 0.3341
v  -2.8775 59.6569 0.2262
v  -0.3341 56.9675 1.1659
v  -1.2114 59.2435 1.4961
v  0.3341 56.9675 1.1659
v  0.4579 58.4551 1.4961
v  7.5972 62.3744 -0.3478
v  7.5972 62.3744 0.3479
v  7.2179 62.1936 0.4078
v  7.2179 62.1936 -0.4076
v  6.5105 62.8521 -1.1665
v  6.1150 62.7249 -1.2131
v  5.0896 63.4395 -1.2004
v  4.6947 63.3312 -1.1569
v  4.0174 63.8596 -0.2584
v  3.6664 63.6827 -0.2059
v  4.0230 63.8504 0.2759
v  3.6661 63.6832 0.2112
v  4.9727 63.2819 1.1651
v  5.3876 63.3874 1.2034
v  6.1165 62.7235 1.2131
v  6.5087 62.8539 1.1674
v  10.2269 64.2555 0.2497
v  10.2269 64.2555 -0.2495
v  10.3539 65.8911 -0.2495
v  10.3539 65.8911 0.2497
v  8.9490 64.6336 -0.8709
v  9.0752 65.8910 -0.8709
v  7.5923 65.0071 -0.8709
v  8.1343 65.8980 -0.8709
v  6.7436 65.2648 -0.1316
v  6.8682 65.8401 -0.1316
v  6.7436 65.2648 0.1318
v  6.8682 65.8401 0.1318
v  8.0088 64.9445 0.8711
v  8.1343 65.8980 0.8711
v  8.9490 64.6336 0.8710
v  9.0752 65.8910 0.8710
v  9.2800 74.1901 -0.2495
v  9.2800 74.1901 0.2497
v  8.2877 73.6613 -0.8709
v  6.7025 72.4343 -0.8709
v  5.2895 71.3388 -0.1316
v  5.2895 71.3388 0.1318
v  6.7025 72.4343 0.8711
v  8.2877 73.6613 0.8710
v  6.0568 76.8167 -0.2495
v  6.0568 76.8167 0.2497
v  5.5236 75.6921 -0.8709
v  4.8740 73.5745 -0.8709
v  4.8285 72.3946 -0.1316
v  4.8285 72.3946 0.1318
v  4.8740 73.5745 0.8711
v  5.5236 75.6921 0.8710
v  2.2293 75.1652 -0.2495
v  2.2293 75.1652 0.2497
v  2.5274 74.5629 -0.8709
v  3.0871 73.8645 -0.8709
v  3.9776 72.7092 -0.1316
v  3.9776 72.7092 0.1318
v  3.0871 73.8645 0.8711
v  2.5274 74.5629 0.8710
v  -1.2776 73.0366 -0.1828
v  -1.2776 73.0366 0.1830
v  -1.0725 72.6220 -0.4945
v  -0.5874 72.0744 -0.4945
v  -0.0860 71.3833 -0.0747
v  -0.0860 71.3833 0.0749
v  -0.5874 72.0744 0.4947
v  -1.0725 72.6220 0.4946
v  -2.8710 71.8650 -0.3230
v  -2.0865 72.4419 -0.1659
v  -2.0865 72.4419 0.1660
v  -2.8710 71.8650 0.3232
v  -3.6555 71.2882 0.1332
v  -3.6555 71.2882 -0.1330
v  7.5098 62.6131 0.2712
v  7.5098 62.6131 -0.2710
v  5.1824 60.9518 0.4096
v  5.1824 60.9518 -0.4095
v  5.3994 61.0473 -0.3619
v  5.3994 61.0473 0.3620
v  6.4663 62.9848 -0.9460
v  4.2598 61.4759 -1.2668
v  4.5064 61.5095 -1.2210
v  5.1430 63.4240 -0.9460
v  2.8572 62.1396 -1.2149
v  3.1088 62.1591 -1.2614
v  4.1737 63.6972 -0.1429
v  1.7362 62.5058 -0.2143
v  1.9397 62.5910 -0.2693
v  4.1737 63.6972 0.1431
v  1.7361 62.5060 0.2176
v  1.9432 62.5854 0.2804
v  5.4326 63.3804 0.9462
v  3.0373 62.1096 1.2193
v  3.3015 62.1259 1.2635
v  6.4663 62.9848 0.9462
v  4.2609 61.4747 1.2667
v  4.5051 61.5110 1.2219
v  5.0269 61.1123 -0.2907
v  5.0269 61.1123 0.2909
v  7.0674 62.3457 -0.2745
v  7.0674 62.3457 0.2747
v  5.3126 61.2850 0.2886
v  5.3126 61.2850 -0.2884
v  4.1975 61.4781 -1.0146
v  6.0620 62.7163 -0.9582
v  4.4586 61.6515 -1.0067
v  2.9047 61.9772 -1.0147
v  4.7441 63.1661 -0.9582
v  3.1623 62.1437 -1.0067
v  1.8252 62.2647 -0.1533
v  3.7552 63.4420 -0.1448
v  2.0955 62.4296 -0.1521
v  1.8252 62.2647 0.1535
v  3.7552 63.4420 0.1450
v  2.0955 62.4296 0.1523
v  3.0784 61.9510 1.0148
v  3.3494 62.1155 1.0069
v  5.0131 63.1257 0.9584
v  4.1975 61.4781 1.0148
v  4.4586 61.6515 1.0069
v  6.0620 62.7163 0.9584
# 143 vertices

vn -0.8963 -0.4435 0.0000
vn -0.7928 0.1913 0.5787
vn -0.7928 0.1913 -0.5787
vn -0.6642 -0.3093 -0.6806
vn -0.5682 -0.4325 -0.7000
vn -0.3084 -0.8440 -0.4389
vn -0.3084 -0.8440 0.4389
vn -0.5680 -0.4314 0.7009
vn -0.6630 -0.3098 0.6815
vn 0.9283 -0.0071 0.3716
vn 0.9359 -0.0291 -0.3511
vn 0.8507 -0.3726 -0.3707
vn 0.8203 -0.4058 0.4029
vn 0.3708 -0.1096 -0.9222
vn 0.2559 -0.1942 -0.9470
vn -0.3382 -0.1373 -0.9310
vn -0.3907 0.1287 -0.9115
vn -0.8765 -0.2683 -0.3997
vn -0.8958 0.2340 -0.3779
vn -0.8759 -0.2582 0.4076
vn -0.8953 0.2319 0.3804
vn -0.3541 -0.1501 0.9231
vn -0.3975 0.1238 0.9092
vn 0.4015 -0.1003 0.9103
vn 0.2717 -0.1984 0.9417
vn 0.8601 -0.2867 -0.4219
vn 0.8629 -0.2987 0.4077
vn 0.0200 -0.9462 0.3231
vn 0.0023 -0.9444 -0.3287
vn 0.4715 0.2155 -0.8551
vn -0.1286 -0.6156 -0.7775
vn 0.1187 0.6659 -0.7365
vn -0.4932 -0.0675 -0.8673
vn -0.0110 0.9711 -0.2384
vn -0.8776 0.2948 -0.3781
vn -0.0461 0.9533 0.2985
vn -0.8646 0.2957 0.4061
vn -0.4452 -0.0778 0.8920
vn 0.1324 0.6607 0.7389
vn -0.1276 -0.6117 0.7807
vn 0.4728 0.1907 0.8603
vn 0.7565 -0.4517 0.4729
vn 0.7566 -0.4527 -0.4718
vn 0.8577 0.0187 -0.5139
vn 0.8561 0.0204 0.5164
vn 0.2349 -0.1778 -0.9556
vn 0.2365 0.0017 -0.9716
vn -0.2213 0.2011 -0.9543
vn -0.1962 0.0215 -0.9803
vn -0.7078 0.5452 -0.4491
vn -0.8594 0.0029 -0.5113
vn -0.6645 0.5257 0.5311
vn -0.8419 -0.0173 0.5393
vn -0.1608 0.1101 0.9808
vn -0.2309 -0.0079 0.9729
vn 0.2370 -0.1765 0.9554
vn 0.2397 0.0033 0.9709
vn 0.7723 0.4332 -0.4646
vn 0.7758 0.4280 0.4635
vn 0.2633 0.1600 -0.9513
vn -0.1449 -0.0862 -0.9857
vn -0.7880 -0.2710 -0.5528
vn -0.7780 -0.3243 0.5381
vn -0.1200 -0.0897 0.9887
vn 0.2685 0.1466 0.9521
vn 0.1402 0.8797 -0.4544
vn 0.1342 0.8815 0.4528
vn 0.0072 0.3215 -0.9469
vn -0.0949 -0.2487 -0.9639
vn -0.5331 -0.6275 -0.5676
vn -0.6734 -0.6142 0.4115
vn -0.0931 -0.2107 0.9731
vn -0.0131 0.3295 0.9441
vn -0.4237 0.8147 -0.3960
vn -0.4207 0.8126 0.4033
vn -0.1925 0.3080 -0.9317
vn 0.0084 -0.2236 -0.9746
vn -0.0402 -0.8423 -0.5375
vn -0.0796 -0.8686 0.4891
vn 0.0032 -0.2202 0.9755
vn -0.1932 0.3159 0.9289
vn -0.5072 0.7310 -0.4565
vn -0.4987 0.7334 0.4621
vn -0.2120 0.2080 -0.9549
vn 0.0294 -0.2594 -0.9653
vn 0.2573 -0.8162 -0.5173
vn 0.2573 -0.8162 0.5173
vn 0.0292 -0.2591 0.9654
vn -0.2075 0.2160 0.9541
vn -0.1132 0.0165 -0.9934
vn -0.4600 0.7315 -0.5033
vn -0.4600 0.7315 0.5033
vn -0.1132 0.0165 0.9934
vn -0.5554 0.5745 0.6012
vn -0.5554 0.5745 -0.6012
vn 0.4597 -0.7144 0.5275
vn 0.4597 -0.7144 -0.5275
vn -0.0084 -0.9548 0.2971
vn -0.0246 -0.9524 -0.3038
vn 0.8730 -0.3135 -0.3736
vn 0.8745 -0.3245 0.3605
vn 0.1210 -0.1365 -0.9832
vn -0.1302 -0.5643 -0.8152
vn 0.5244 0.1120 -0.8440
vn -0.2847 0.4845 -0.8272
vn -0.4879 0.0116 -0.8728
vn 0.1182 0.6030 -0.7890
vn -0.4985 0.8192 -0.2835
vn -0.8726 0.3148 -0.3735
vn -0.0093 0.9626 -0.2709
vn -0.4945 0.8129 0.3076
vn -0.8643 0.3225 0.3860
vn -0.0396 0.9481 0.3154
vn -0.2440 0.4248 0.8718
vn -0.4536 0.0226 0.8909
vn 0.1224 0.6061 0.7860
vn 0.1233 -0.1403 0.9824
vn -0.1234 -0.5662 0.8150
vn 0.5239 0.0924 0.8468
vn 0.5957 -0.7234 -0.3490
vn 0.5957 -0.7234 0.3490
vn 0.4894 -0.8053 -0.3345
vn 0.4894 -0.8053 0.3345
vn 0.4748 -0.7450 0.4685
vn 0.4748 -0.7450 -0.4685
vn 0.3330 -0.3243 -0.8854
vn 0.2596 -0.3886 -0.8841
vn 0.1463 -0.1752 -0.9736
vn -0.0968 0.3090 -0.9461
vn -0.1232 0.2357 -0.9640
vn -0.2788 0.4745 -0.8349
vn -0.4386 0.7987 -0.4120
vn -0.4728 0.7749 -0.4195
vn -0.4984 0.8192 -0.2838
vn -0.4235 0.7936 0.4369
vn -0.4529 0.7584 0.4687
vn -0.4959 0.8152 0.2991
vn -0.0774 0.2902 0.9538
vn -0.2508 0.4400 0.8623
vn -0.0967 0.2056 0.9739
vn 0.3310 -0.3210 0.8874
vn 0.1482 -0.1784 0.9727
vn 0.2566 -0.3835 0.8872
vn 0.8250 0.4225 -0.3752
vn 0.8393 0.4364 0.3242
vn 0.4547 0.8118 0.3664
vn 0.3367 0.9415 0.0150
vn 0.6111 0.7674 -0.1942
vn 0.6467 0.7502 0.1376
vn 0.3219 0.9463 -0.0290
vn 0.4323 0.7979 -0.4200
vn -0.6289 -0.7612 -0.1585
vn -0.6390 -0.7613 0.1101
vn -0.3354 -0.9340 -0.1229
vn -0.4407 -0.7310 -0.5210
vn -0.8446 -0.4014 -0.3542
vn -0.8290 -0.4259 0.3624
vn -0.4392 -0.7690 0.4644
vn -0.3735 -0.9238 0.0849
vn -0.6596 -0.7393 -0.1354
vn -0.6658 -0.7409 0.0885
vn -0.3816 -0.9181 -0.1071
vn -0.4496 -0.7332 -0.5101
vn -0.8410 -0.4020 -0.3622
vn -0.8344 -0.4218 0.3547
vn -0.4562 -0.7576 0.4669
vn -0.4162 -0.9064 0.0724
vn 0.8546 0.4101 -0.3186
vn 0.8645 0.4222 0.2729
vn 0.5091 0.7765 0.3711
vn 0.3524 0.9358 0.0104
vn 0.6172 0.7623 -0.1948
vn 0.6420 0.7529 0.1449
vn 0.3354 0.9415 -0.0333
vn 0.4896 0.7635 -0.4211
# 175 vertex normals

vt 0.5682 0.9612 0.0000
vt 0.5590 0.9542 0.0000
vt 0.5776 0.9559 0.0000
vt 0.5785 0.9594 0.0000
vt 0.5768 0.9635 0.0000
vt 0.5711 0.9684 0.0000
vt 0.5637 0.9680 0.0000
vt 0.5589 0.9638 0.0000
vt 0.5569 0.9595 0.0000
vt 0.2290 0.3775 0.0000
vt 0.2024 0.3775 0.0000
vt 0.1987 0.3678 0.0000
vt 0.2327 0.3678 0.0000
vt 0.1600 0.3775 0.0000
vt 0.1562 0.3632 0.0000
vt 0.1241 0.3774 0.0000
vt 0.0902 0.3554 0.0000
vt 0.4000 0.3773 0.0000
vt 0.3669 0.3773 0.0000
vt 0.3620 0.3514 0.0000
vt 0.4126 0.3553 0.0000
vt 0.3404 0.3773 0.0000
vt 0.3441 0.3514 0.0000
vt 0.3073 0.3774 0.0000
vt 0.3174 0.3554 0.0000
vt 0.2714 0.3775 0.0000
vt 0.2752 0.3632 0.0000
vt 0.3198 0.0378 0.0000
vt 0.2887 0.0378 0.0000
vt 0.2887 0.0220 0.0000
vt 0.3198 0.0220 0.0000
vt 0.3823 0.0378 0.0000
vt 0.3823 0.0220 0.0000
vt 0.4467 0.0378 0.0000
vt 0.4467 0.0220 0.0000
vt 0.0829 0.0378 0.0000
vt 0.0256 0.0378 0.0000
vt 0.0256 0.0220 0.0000
vt 0.0829 0.0220 0.0000
vt 0.1014 0.0378 0.0000
vt 0.1014 0.0220 0.0000
vt 0.1732 0.0220 0.0000
vt 0.1732 0.0378 0.0000
vt 0.2266 0.0220 0.0000
vt 0.2266 0.0378 0.0000
vt 0.6987 0.5995 0.0000
vt 0.7565 0.6015 0.0000
vt 0.7429 0.6582 0.0000
vt 0.6896 0.6562 0.0000
vt 0.8187 0.6036 0.0000
vt 0.8001 0.6592 0.0000
vt 0.8745 0.6045 0.0000
vt 0.8576 0.6549 0.0000
vt 0.9099 0.6067 0.0000
vt 0.9087 0.6284 0.0000
vt 0.5384 0.6027 0.0000
vt 0.5465 0.5981 0.0000
vt 0.5642 0.6443 0.0000
vt 0.5421 0.6181 0.0000
vt 0.5873 0.5981 0.0000
vt 0.5973 0.6513 0.0000
vt 0.6388 0.5981 0.0000
vt 0.6399 0.6541 0.0000
vt 0.7256 0.7158 0.0000
vt 0.6768 0.7129 0.0000
vt 0.7811 0.7200 0.0000
vt 0.8472 0.7276 0.0000
vt 0.9359 0.7525 0.0000
vt 0.5707 0.7097 0.0000
vt 0.5548 0.7268 0.0000
vt 0.5978 0.7088 0.0000
vt 0.6338 0.7107 0.0000
vt 0.7014 0.7722 0.0000
vt 0.6584 0.7690 0.0000
vt 0.7514 0.7773 0.0000
vt 0.8141 0.7831 0.0000
vt 0.8907 0.7933 0.0000
vt 0.5662 0.7589 0.0000
vt 0.5513 0.7552 0.0000
vt 0.5895 0.7635 0.0000
vt 0.6206 0.7671 0.0000
vt 0.6701 0.8266 0.0000
vt 0.6348 0.8237 0.0000
vt 0.7092 0.8340 0.0000
vt 0.7669 0.8342 0.0000
vt 0.8530 0.8235 0.0000
vt 0.5533 0.8071 0.0000
vt 0.5434 0.7786 0.0000
vt 0.5732 0.8193 0.0000
vt 0.6008 0.8251 0.0000
vt 0.6350 0.8766 0.0000
vt 0.6101 0.8742 0.0000
vt 0.6484 0.8978 0.0000
vt 0.6914 0.8962 0.0000
vt 0.7350 0.8945 0.0000
vt 0.5305 0.8717 0.0000
vt 0.5136 0.8592 0.0000
vt 0.5492 0.8814 0.0000
vt 0.5745 0.8903 0.0000
vt 0.6055 0.9233 0.0000
vt 0.6114 0.9078 0.0000
vt 0.6151 0.9586 0.0000
vt 0.6010 0.9587 0.0000
vt 0.6283 0.9597 0.0000
vt 0.5058 0.9389 0.0000
vt 0.5045 0.9372 0.0000
vt 0.5187 0.9444 0.0000
vt 0.5324 0.9502 0.0000
vt 0.5959 0.9062 0.0000
vt 0.5798 0.9205 0.0000
vt 0.5718 0.9370 0.0000
vt 0.5890 0.9389 0.0000
vt 0.7099 0.5423 0.0000
vt 0.7655 0.5448 0.0000
vt 0.3027 0.0644 0.0000
vt 0.3478 0.0644 0.0000
vt 0.3478 0.0774 0.0000
vt 0.3027 0.0774 0.0000
vt 0.8439 0.5491 0.0000
vt 0.4063 0.0644 0.0000
vt 0.4063 0.0774 0.0000
vt 0.9119 0.5528 0.0000
vt 0.4480 0.0644 0.0000
vt 0.4480 0.0774 0.0000
vt 0.9698 0.5541 0.0000
vt 0.0258 0.0644 0.0000
vt 0.1189 0.0644 0.0000
vt 0.1189 0.0774 0.0000
vt 0.0258 0.0774 0.0000
vt 0.4861 0.5515 0.0000
vt 0.4962 0.5473 0.0000
vt 0.1415 0.0644 0.0000
vt 0.1415 0.0774 0.0000
vt 0.5667 0.5449 0.0000
vt 0.2042 0.0644 0.0000
vt 0.2042 0.0774 0.0000
vt 0.6291 0.5408 0.0000
vt 0.2442 0.0644 0.0000
vt 0.2442 0.0774 0.0000
vt 0.2507 0.3113 0.0000
vt 0.1977 0.3113 0.0000
vt 0.1977 0.2243 0.0000
vt 0.2507 0.2243 0.0000
vt 0.3046 0.1096 0.0000
vt 0.3427 0.1096 0.0000
vt 0.3427 0.2106 0.0000
vt 0.3046 0.2106 0.0000
vt 0.1543 0.3113 0.0000
vt 0.1543 0.2243 0.0000
vt 0.2411 0.1096 0.0000
vt 0.2411 0.2106 0.0000
vt 0.0800 0.3113 0.0000
vt 0.0800 0.2243 0.0000
vt 0.1860 0.1096 0.0000
vt 0.1860 0.2106 0.0000
vt 0.0224 0.3113 0.0000
vt 0.0224 0.2243 0.0000
vt 0.1148 0.1096 0.0000
vt 0.1148 0.2106 0.0000
vt 0.4600 0.3113 0.0000
vt 0.4258 0.3113 0.0000
vt 0.4258 0.2243 0.0000
vt 0.4600 0.2243 0.0000
vt 0.0943 0.1096 0.0000
vt 0.0943 0.2106 0.0000
vt 0.3684 0.3113 0.0000
vt 0.3684 0.2243 0.0000
vt 0.0161 0.2106 0.0000
vt 0.0161 0.1096 0.0000
vt 0.2940 0.3113 0.0000
vt 0.2940 0.2243 0.0000
vt 0.4062 0.2106 0.0000
vt 0.4062 0.1096 0.0000
vt 0.4543 0.1096 0.0000
vt 0.4543 0.2106 0.0000
vt 0.3198 0.0475 0.0000
vt 0.2887 0.0475 0.0000
vt 0.2266 0.0475 0.0000
vt 0.1732 0.0475 0.0000
vt 0.1014 0.0475 0.0000
vt 0.0829 0.0475 0.0000
vt 0.0256 0.0475 0.0000
vt 0.4467 0.0475 0.0000
vt 0.3823 0.0475 0.0000
vt 0.2887 0.0122 0.0000
vt 0.3198 0.0122 0.0000
vt 0.3823 0.0122 0.0000
vt 0.4467 0.0122 0.0000
vt 0.0256 0.0122 0.0000
vt 0.0829 0.0122 0.0000
vt 0.1014 0.0122 0.0000
vt 0.1732 0.0122 0.0000
vt 0.2266 0.0122 0.0000
vt 0.3027 0.0550 0.0000
vt 0.3478 0.0550 0.0000
vt 0.4063 0.0550 0.0000
vt 0.4480 0.0550 0.0000
vt 0.0258 0.0550 0.0000
vt 0.1189 0.0550 0.0000
vt 0.1415 0.0550 0.0000
vt 0.2042 0.0550 0.0000
vt 0.2442 0.0550 0.0000
vt 0.3478 0.0878 0.0000
vt 0.3027 0.0878 0.0000
vt 0.2442 0.0878 0.0000
vt 0.2042 0.0878 0.0000
vt 0.1415 0.0878 0.0000
vt 0.1189 0.0878 0.0000
vt 0.0258 0.0878 0.0000
vt 0.4480 0.0878 0.0000
vt 0.4063 0.0878 0.0000
# 211 texture coords

o MeguminStaff
g MeguminStaff
usemtl Megumin_staff
s off
f 1/1/1 2/2/2 3/3/3 
f 1/1/1 3/3/3 4/4/4 
f 1/1/1 4/4/4 5/5/5 
f 1/1/1 5/5/5 6/6/6 
f 1/1/1 6/6/6 7/7/7 
f 1/1/1 7/7/7 8/8/8 
f 1/1/1 8/8/8 9/9/9 
f 1/1/1 9/9/9 2/2/2 
f 10/10/10 11/11/11 12/12/12 13/13/13 
f 11/11/11 14/14/14 15/15/15 12/12/12 
f 14/14/14 16/16/16 17/17/17 15/15/15 
f 16/18/16 18/19/18 19/20/19 17/21/17 
f 18/19/18 20/22/20 21/23/21 19/20/19 
f 20/22/20 22/24/22 23/25/23 21/23/21 
f 22/24/22 24/26/24 25/27/25 23/25/23 
f 24/26/24 10/10/10 13/13/13 25/27/25 
f 26/28/26 27/29/27 28/30/28 29/31/29 
f 30/32/30 26/28/26 29/31/29 31/33/31 
f 32/34/32 30/32/30 31/33/31 33/35/33 
f 34/36/34 32/37/32 33/38/33 35/39/35 
f 36/40/36 34/36/34 35/39/35 37/41/37 
f 38/42/38 39/43/39 36/40/36 37/41/37 
f 40/44/40 41/45/41 39/43/39 38/42/38 
f 28/30/28 27/29/27 41/45/41 40/44/40 
f 42/46/42 43/47/43 44/48/44 45/49/45 
f 43/47/43 46/50/46 47/51/47 44/48/44 
f 46/50/46 48/52/48 49/53/49 47/51/47 
f 48/52/48 50/54/50 51/55/51 49/53/49 
f 50/56/50 52/57/52 53/58/53 51/59/51 
f 52/57/52 54/60/54 55/61/55 53/58/53 
f 54/60/54 56/62/56 57/63/57 55/61/55 
f 56/62/56 42/46/42 45/49/45 57/63/57 
f 45/49/45 44/48/44 58/64/58 59/65/59 
f 44/48/44 47/51/47 60/66/60 58/64/58 
f 47/51/47 49/53/49 61/67/61 60/66/60 
f 49/53/49 51/55/51 62/68/62 61/67/61 
f 51/59/51 53/58/53 63/69/63 62/70/62 
f 53/58/53 55/61/55 64/71/64 63/69/63 
f 55/61/55 57/63/57 65/72/65 64/71/64 
f 57/63/57 45/49/45 59/65/59 65/72/65 
f 59/65/59 58/64/58 66/73/66 67/74/67 
f 58/64/58 60/66/60 68/75/68 66/73/66 
f 60/66/60 61/67/61 69/76/69 68/75/68 
f 61/67/61 62/68/62 70/77/70 69/76/69 
f 62/70/62 63/69/63 71/78/71 70/79/70 
f 63/69/63 64/71/64 72/80/72 71/78/71 
f 72/80/72 64/71/64 65/72/65 73/81/73 
f 65/72/65 59/65/59 67/74/67 73/81/73 
f 67/74/67 66/73/66 74/82/74 75/83/75 
f 66/73/66 68/75/68 76/84/76 74/82/74 
f 68/75/68 69/76/69 77/85/77 76/84/76 
f 69/76/69 70/77/70 78/86/78 77/85/77 
f 70/79/70 71/78/71 79/87/79 78/88/78 
f 71/78/71 72/80/72 80/89/80 79/87/79 
f 72/80/72 73/81/73 81/90/81 80/89/80 
f 73/81/73 67/74/67 75/83/75 81/90/81 
f 74/82/74 82/91/82 83/92/83 75/83/75 
f 76/84/76 84/93/84 82/91/82 74/82/74 
f 77/85/77 85/94/85 84/93/84 76/84/76 
f 77/85/77 78/86/78 86/95/86 85/94/85 
f 79/87/79 87/96/87 86/97/86 78/88/78 
f 80/89/80 88/98/88 87/96/87 79/87/79 
f 81/90/81 89/99/89 88/98/88 80/89/80 
f 75/83/75 83/92/83 89/99/89 81/90/81 
f 84/93/84 90/100/90 91/101/91 82/91/82 
f 5/102/5 4/103/4 84/93/84 85/94/85 
f 6/104/6 5/102/5 85/94/85 86/95/86 
f 7/105/7 6/106/6 86/97/86 87/96/87 
f 88/98/88 8/107/8 7/105/7 87/96/87 
f 9/108/9 8/107/8 88/98/88 89/99/89 
f 92/109/92 93/110/93 89/99/89 83/92/83 
f 3/3/3 2/2/2 94/111/94 95/112/95 
f 83/92/83 82/91/82 91/101/91 92/109/92 
f 84/93/84 4/103/4 90/100/90 
f 93/110/93 9/108/9 89/99/89 
f 4/103/4 3/3/3 95/112/95 90/100/90 
f 94/111/94 2/2/2 9/108/9 93/110/93 
f 43/47/43 42/46/42 96/113/96 97/114/97 
f 98/115/98 99/116/99 100/117/100 101/118/101 
f 46/50/46 43/47/43 97/114/97 102/119/102 
f 99/116/99 103/120/103 104/121/104 100/117/100 
f 48/52/48 46/50/46 102/119/102 105/122/105 
f 103/120/103 106/123/106 107/124/107 104/121/104 
f 50/54/50 48/52/48 105/122/105 108/125/108 
f 106/126/106 109/127/109 110/128/110 107/129/107 
f 52/57/52 50/56/50 108/130/108 111/131/111 
f 109/127/109 112/132/112 113/133/113 110/128/110 
f 114/134/114 54/60/54 52/57/52 111/131/111 
f 113/133/113 112/132/112 115/135/115 116/136/116 
f 117/137/117 56/62/56 54/60/54 114/134/114 
f 116/136/116 115/135/115 118/138/118 119/139/119 
f 96/113/96 42/46/42 56/62/56 117/137/117 
f 119/139/119 118/138/118 98/115/98 101/118/101 
f 13/140/13 12/141/12 120/142/120 121/143/121 
f 122/144/122 123/145/123 124/146/124 125/147/125 
f 12/141/12 15/148/15 126/149/126 120/142/120 
f 127/150/127 122/144/122 125/147/125 128/151/128 
f 15/148/15 17/152/17 129/153/129 126/149/126 
f 130/154/130 127/150/127 128/151/128 131/155/131 
f 17/152/17 19/156/19 132/157/132 129/153/129 
f 133/158/133 130/154/130 131/155/131 134/159/134 
f 19/160/19 21/161/21 135/162/135 132/163/132 
f 136/164/136 133/158/133 134/159/134 137/165/137 
f 135/162/135 21/161/21 23/166/23 138/167/138 
f 139/168/139 140/169/140 136/164/136 137/165/137 
f 138/167/138 23/166/23 25/170/25 141/171/141 
f 142/172/142 143/173/143 140/174/140 139/175/139 
f 141/171/141 25/170/25 13/140/13 121/143/121 
f 124/146/124 123/145/123 143/173/143 142/172/142 
f 97/176/144 96/177/145 27/29/27 26/28/26 
f 96/177/145 117/178/146 41/45/41 27/29/27 
f 117/178/146 114/179/147 39/43/39 41/45/41 
f 114/179/147 111/180/148 36/40/36 39/43/39 
f 111/180/148 108/181/149 34/36/34 36/40/36 
f 108/181/149 105/182/150 32/37/32 34/36/34 
f 105/183/150 102/184/151 30/32/30 32/34/32 
f 102/184/151 97/176/144 26/28/26 30/32/30 
f 123/185/152 122/186/153 29/31/29 28/30/28 
f 122/186/153 127/187/154 31/33/31 29/31/29 
f 127/187/154 130/188/155 33/35/33 31/33/31 
f 130/189/155 133/190/156 35/39/35 33/38/33 
f 133/190/156 136/191/157 37/41/37 35/39/35 
f 136/191/157 140/192/158 38/42/38 37/41/37 
f 140/192/158 143/193/159 40/44/40 38/42/38 
f 143/193/159 123/185/152 28/30/28 40/44/40 
f 121/194/160 120/195/161 99/116/99 98/115/98 
f 120/195/161 126/196/162 103/120/103 99/116/99 
f 126/196/162 129/197/163 106/123/106 103/120/103 
f 129/198/163 132/199/164 109/127/109 106/126/106 
f 132/199/164 135/200/165 112/132/112 109/127/109 
f 135/200/165 138/201/166 115/135/115 112/132/112 
f 138/201/166 141/202/167 118/138/118 115/135/115 
f 141/202/167 121/194/160 98/115/98 118/138/118 
f 125/203/168 124/204/169 101/118/101 100/117/100 
f 124/204/169 142/205/170 119/139/119 101/118/101 
f 142/205/170 139/206/171 116/136/116 119/139/119 
f 139/206/171 137/207/172 113/133/113 116/136/116 
f 137/207/172 134/208/173 110/128/110 113/133/113 
f 134/208/173 131/209/174 107/129/107 110/128/110 
f 131/210/174 128/211/175 104/121/104 107/124/107 
f 128/211/175 125/203/168 100/117/100 104/121/104 
# 131 polygons - 10 triangles

