# 3ds Max Wavefront OBJ Exporter v0.97b - (c)2007 guruware
# File Created: 03.10.2017 14:25:51

mtllib staff orb.mtl

#
# object MeguminStaff
#

v  -0.4753 66.4001 -3.1660
v  -0.4753 67.9832 -2.7418
v  0.3162 67.7711 -2.7418
v  0.8956 67.1917 -2.7418
v  1.1077 66.4001 -2.7418
v  0.8956 65.6086 -2.7418
v  0.3162 65.0292 -2.7418
v  -0.4753 64.8171 -2.7418
v  -1.2669 65.0292 -2.7418
v  -1.8463 65.6086 -2.7418
v  -2.0584 66.4001 -2.7418
v  -1.8463 67.1917 -2.7418
v  -1.2669 67.7711 -2.7418
v  -0.4753 69.1420 -1.5830
v  0.8956 68.7747 -1.5830
v  1.8992 67.7711 -1.5830
v  2.2666 66.4001 -1.5830
v  1.8992 65.0292 -1.5830
v  0.8956 64.0255 -1.5830
v  -0.4753 63.6582 -1.5830
v  -1.8463 64.0255 -1.5830
v  -2.8499 65.0292 -1.5830
v  -3.2173 66.4001 -1.5830
v  -2.8499 67.7711 -1.5830
v  -1.8463 68.7747 -1.5830
v  -0.4753 69.5662 0.0001
v  1.1077 69.1420 0.0001
v  2.2666 67.9832 0.0001
v  2.6908 66.4001 0.0001
v  2.2666 64.8171 0.0001
v  1.1077 63.6582 0.0001
v  -0.4753 63.2340 0.0001
v  -2.0584 63.6582 0.0001
v  -3.2173 64.8171 0.0001
v  -3.6414 66.4001 0.0001
v  -3.2173 67.9832 0.0001
v  -2.0584 69.1420 0.0001
v  -0.4753 69.1420 1.5831
v  0.8956 68.7747 1.5831
v  1.8992 67.7711 1.5831
v  2.2666 66.4001 1.5831
v  1.8992 65.0292 1.5831
v  0.8956 64.0255 1.5831
v  -0.4753 63.6582 1.5831
v  -1.8463 64.0255 1.5831
v  -2.8499 65.0292 1.5831
v  -3.2173 66.4001 1.5831
v  -2.8499 67.7711 1.5831
v  -1.8463 68.7747 1.5831
v  -0.4753 67.9832 2.7420
v  0.3162 67.7711 2.7420
v  0.8956 67.1917 2.7420
v  1.1077 66.4001 2.7420
v  0.8956 65.6086 2.7420
v  0.3162 65.0292 2.7420
v  -0.4753 64.8171 2.7420
v  -1.2669 65.0292 2.7420
v  -1.8463 65.6086 2.7420
v  -2.0584 66.4001 2.7420
v  -1.8463 67.1917 2.7420
v  -1.2669 67.7711 2.7420
v  -0.4753 66.4001 3.1662
# 62 vertices

vn 0.0000 -0.0000 -1.0000
vn 0.0000 0.5309 -0.8474
vn 0.2654 0.4598 -0.8474
vn 0.4598 0.2654 -0.8474
vn 0.5309 -0.0000 -0.8474
vn 0.4598 -0.2655 -0.8474
vn 0.2655 -0.4598 -0.8474
vn 0.0000 -0.5309 -0.8474
vn -0.2655 -0.4598 -0.8474
vn -0.4598 -0.2655 -0.8474
vn -0.5309 -0.0000 -0.8474
vn -0.4598 0.2654 -0.8474
vn -0.2654 0.4598 -0.8474
vn 0.0000 0.8760 -0.4823
vn 0.4380 0.7586 -0.4823
vn 0.7586 0.4380 -0.4823
vn 0.8760 -0.0000 -0.4823
vn 0.7586 -0.4380 -0.4823
vn 0.4380 -0.7586 -0.4823
vn -0.0000 -0.8760 -0.4823
vn -0.4380 -0.7586 -0.4823
vn -0.7586 -0.4380 -0.4823
vn -0.8760 -0.0000 -0.4823
vn -0.7586 0.4380 -0.4823
vn -0.4380 0.7586 -0.4823
vn 0.0000 1.0000 0.0000
vn 0.5000 0.8660 -0.0000
vn 0.8660 0.5000 -0.0000
vn 1.0000 -0.0000 0.0000
vn 0.8660 -0.5000 0.0000
vn 0.5000 -0.8660 0.0000
vn 0.0000 -1.0000 0.0000
vn -0.5000 -0.8660 0.0000
vn -0.8660 -0.5000 0.0000
vn -1.0000 -0.0000 -0.0000
vn -0.8660 0.5000 0.0000
vn -0.5000 0.8660 0.0000
vn -0.0000 0.8760 0.4823
vn 0.4380 0.7586 0.4823
vn 0.7586 0.4380 0.4823
vn 0.8760 -0.0000 0.4823
vn 0.7586 -0.4380 0.4823
vn 0.4380 -0.7586 0.4823
vn 0.0000 -0.8760 0.4823
vn -0.4380 -0.7586 0.4823
vn -0.7586 -0.4380 0.4823
vn -0.8760 -0.0000 0.4823
vn -0.7586 0.4380 0.4823
vn -0.4380 0.7586 0.4823
vn -0.0000 0.5309 0.8474
vn 0.2654 0.4598 0.8474
vn 0.4598 0.2654 0.8474
vn 0.5309 -0.0000 0.8474
vn 0.4598 -0.2655 0.8474
vn 0.2655 -0.4598 0.8474
vn -0.0000 -0.5309 0.8474
vn -0.2655 -0.4598 0.8474
vn -0.4598 -0.2655 0.8474
vn -0.5309 -0.0000 0.8474
vn -0.4598 0.2654 0.8474
vn -0.2654 0.4598 0.8474
vn -0.0000 -0.0000 1.0000
# 62 vertex normals

vt 0.4868 0.3460 0.0000
vt 0.4868 0.2889 0.0000
vt 0.5288 0.2889 0.0000
vt 0.5288 0.3460 0.0000
vt 0.5708 0.2889 0.0000
vt 0.5708 0.3460 0.0000
vt 0.6129 0.2889 0.0000
vt 0.6129 0.3460 0.0000
vt 0.6549 0.2889 0.0000
vt 0.6549 0.3460 0.0000
vt 0.6969 0.2889 0.0000
vt 0.6969 0.3460 0.0000
vt 0.7390 0.2889 0.0000
vt 0.7390 0.3460 0.0000
vt 0.7810 0.2889 0.0000
vt 0.7810 0.3460 0.0000
vt 0.8230 0.2889 0.0000
vt 0.8230 0.3460 0.0000
vt 0.8651 0.2889 0.0000
vt 0.8651 0.3460 0.0000
vt 0.9071 0.2889 0.0000
vt 0.9071 0.3460 0.0000
vt 0.9491 0.2889 0.0000
vt 0.9491 0.3460 0.0000
vt 0.9912 0.2889 0.0000
vt 0.4868 0.2317 0.0000
vt 0.5288 0.2317 0.0000
vt 0.5708 0.2317 0.0000
vt 0.6129 0.2317 0.0000
vt 0.6549 0.2317 0.0000
vt 0.6969 0.2317 0.0000
vt 0.7390 0.2317 0.0000
vt 0.7810 0.2317 0.0000
vt 0.8230 0.2317 0.0000
vt 0.8651 0.2317 0.0000
vt 0.9071 0.2317 0.0000
vt 0.9491 0.2317 0.0000
vt 0.9912 0.2317 0.0000
vt 0.4868 0.1746 0.0000
vt 0.5288 0.1746 0.0000
vt 0.5708 0.1746 0.0000
vt 0.6129 0.1746 0.0000
vt 0.6549 0.1746 0.0000
vt 0.6969 0.1746 0.0000
vt 0.7390 0.1746 0.0000
vt 0.7810 0.1746 0.0000
vt 0.8230 0.1746 0.0000
vt 0.8651 0.1746 0.0000
vt 0.9071 0.1746 0.0000
vt 0.9491 0.1746 0.0000
vt 0.9912 0.1746 0.0000
vt 0.4868 0.1175 0.0000
vt 0.5288 0.1175 0.0000
vt 0.5708 0.1175 0.0000
vt 0.6129 0.1175 0.0000
vt 0.6549 0.1175 0.0000
vt 0.6969 0.1175 0.0000
vt 0.7390 0.1175 0.0000
vt 0.7810 0.1175 0.0000
vt 0.8230 0.1175 0.0000
vt 0.8651 0.1175 0.0000
vt 0.9071 0.1175 0.0000
vt 0.9491 0.1175 0.0000
vt 0.9912 0.1175 0.0000
vt 0.4868 0.0603 0.0000
vt 0.5288 0.0603 0.0000
vt 0.5708 0.0603 0.0000
vt 0.6129 0.0603 0.0000
vt 0.6549 0.0603 0.0000
vt 0.6969 0.0603 0.0000
vt 0.7390 0.0603 0.0000
vt 0.7810 0.0603 0.0000
vt 0.8230 0.0603 0.0000
vt 0.8651 0.0603 0.0000
vt 0.9071 0.0603 0.0000
vt 0.9491 0.0603 0.0000
vt 0.9912 0.0603 0.0000
vt 0.4868 0.0032 0.0000
vt 0.5288 0.0032 0.0000
vt 0.5708 0.0032 0.0000
vt 0.6129 0.0032 0.0000
vt 0.6549 0.0032 0.0000
vt 0.6969 0.0032 0.0000
vt 0.7390 0.0032 0.0000
vt 0.7810 0.0032 0.0000
vt 0.8230 0.0032 0.0000
vt 0.8651 0.0032 0.0000
vt 0.9071 0.0032 0.0000
vt 0.9491 0.0032 0.0000
# 89 texture coords

o MeguminStaff
g MeguminStaff
usemtl Megumin_staff
s off
f 1/1/1 2/2/2 3/3/3 
f 1/4/1 3/3/3 4/5/4 
f 1/6/1 4/5/4 5/7/5 
f 1/8/1 5/7/5 6/9/6 
f 1/10/1 6/9/6 7/11/7 
f 1/12/1 7/11/7 8/13/8 
f 1/14/1 8/13/8 9/15/9 
f 1/16/1 9/15/9 10/17/10 
f 1/18/1 10/17/10 11/19/11 
f 1/20/1 11/19/11 12/21/12 
f 1/22/1 12/21/12 13/23/13 
f 1/24/1 13/23/13 2/25/2 
f 3/3/3 2/2/2 14/26/14 15/27/15 
f 4/5/4 3/3/3 15/27/15 16/28/16 
f 5/7/5 4/5/4 16/28/16 17/29/17 
f 6/9/6 5/7/5 17/29/17 18/30/18 
f 7/11/7 6/9/6 18/30/18 19/31/19 
f 8/13/8 7/11/7 19/31/19 20/32/20 
f 9/15/9 8/13/8 20/32/20 21/33/21 
f 10/17/10 9/15/9 21/33/21 22/34/22 
f 11/19/11 10/17/10 22/34/22 23/35/23 
f 12/21/12 11/19/11 23/35/23 24/36/24 
f 13/23/13 12/21/12 24/36/24 25/37/25 
f 2/25/2 13/23/13 25/37/25 14/38/14 
f 15/27/15 14/26/14 26/39/26 27/40/27 
f 16/28/16 15/27/15 27/40/27 28/41/28 
f 17/29/17 16/28/16 28/41/28 29/42/29 
f 18/30/18 17/29/17 29/42/29 30/43/30 
f 19/31/19 18/30/18 30/43/30 31/44/31 
f 20/32/20 19/31/19 31/44/31 32/45/32 
f 21/33/21 20/32/20 32/45/32 33/46/33 
f 22/34/22 21/33/21 33/46/33 34/47/34 
f 23/35/23 22/34/22 34/47/34 35/48/35 
f 24/36/24 23/35/23 35/48/35 36/49/36 
f 25/37/25 24/36/24 36/49/36 37/50/37 
f 14/38/14 25/37/25 37/50/37 26/51/26 
f 27/40/27 26/39/26 38/52/38 39/53/39 
f 28/41/28 27/40/27 39/53/39 40/54/40 
f 29/42/29 28/41/28 40/54/40 41/55/41 
f 30/43/30 29/42/29 41/55/41 42/56/42 
f 31/44/31 30/43/30 42/56/42 43/57/43 
f 32/45/32 31/44/31 43/57/43 44/58/44 
f 33/46/33 32/45/32 44/58/44 45/59/45 
f 34/47/34 33/46/33 45/59/45 46/60/46 
f 35/48/35 34/47/34 46/60/46 47/61/47 
f 36/49/36 35/48/35 47/61/47 48/62/48 
f 37/50/37 36/49/36 48/62/48 49/63/49 
f 26/51/26 37/50/37 49/63/49 38/64/38 
f 39/53/39 38/52/38 50/65/50 51/66/51 
f 40/54/40 39/53/39 51/66/51 52/67/52 
f 41/55/41 40/54/40 52/67/52 53/68/53 
f 42/56/42 41/55/41 53/68/53 54/69/54 
f 43/57/43 42/56/42 54/69/54 55/70/55 
f 44/58/44 43/57/43 55/70/55 56/71/56 
f 45/59/45 44/58/44 56/71/56 57/72/57 
f 46/60/46 45/59/45 57/72/57 58/73/58 
f 47/61/47 46/60/46 58/73/58 59/74/59 
f 48/62/48 47/61/47 59/74/59 60/75/60 
f 49/63/49 48/62/48 60/75/60 61/76/61 
f 38/64/38 49/63/49 61/76/61 50/77/50 
f 62/78/62 51/66/51 50/65/50 
f 62/79/62 52/67/52 51/66/51 
f 62/80/62 53/68/53 52/67/52 
f 62/81/62 54/69/54 53/68/53 
f 62/82/62 55/70/55 54/69/54 
f 62/83/62 56/71/56 55/70/55 
f 62/84/62 57/72/57 56/71/56 
f 62/85/62 58/73/58 57/72/57 
f 62/86/62 59/74/59 58/73/58 
f 62/87/62 60/75/60 59/74/59 
f 62/88/62 61/76/61 60/75/60 
f 62/89/62 50/77/50 61/76/61 
# 48 polygons - 24 triangles

