# 3ds Max Wavefront OBJ Exporter v0.97b - (c)2007 guruware
# File Created: 03.10.2017 14:23:30

mtllib staff middle 1.mtl

#
# object MeguminStaff
#

v  1.0976 44.1039 0.3145
v  1.0976 44.1039 -0.3145
v  1.1659 56.9675 -0.3341
v  1.1659 56.9675 0.3341
v  0.3145 44.1039 -1.0976
v  0.3341 56.9675 -1.1659
v  -0.3145 44.1039 -1.0976
v  -0.3341 56.9675 -1.1659
v  -1.0976 44.1039 -0.3145
v  -1.1659 56.9675 -0.3341
v  -1.0976 44.1039 0.3145
v  -1.1659 56.9675 0.3341
v  -0.3145 44.1039 1.0976
v  -0.3341 56.9675 1.1659
v  0.3145 44.1039 1.0976
v  0.3341 56.9675 1.1659
# 16 vertices

vn 0.9239 -0.0102 0.3825
vn 0.9239 -0.0102 -0.3825
vn 0.9359 -0.0291 -0.3511
vn 0.9283 -0.0071 0.3716
vn 0.3825 -0.0102 -0.9239
vn 0.3708 -0.1096 -0.9222
vn -0.3825 -0.0102 -0.9239
vn -0.3382 -0.1373 -0.9310
vn -0.9239 -0.0102 -0.3825
vn -0.8765 -0.2683 -0.3997
vn -0.9239 -0.0102 0.3825
vn -0.8759 -0.2582 0.4076
vn -0.3825 -0.0102 0.9239
vn -0.3541 -0.1501 0.9231
vn 0.3825 -0.0102 0.9239
vn 0.4015 -0.1003 0.9103
# 16 vertex normals

vt 0.2282 0.5014 0.0000
vt 0.2032 0.5014 0.0000
vt 0.2024 0.3775 0.0000
vt 0.2290 0.3775 0.0000
vt 0.1581 0.5014 0.0000
vt 0.1600 0.3775 0.0000
vt 0.1192 0.5013 0.0000
vt 0.1241 0.3774 0.0000
vt 0.4001 0.5011 0.0000
vt 0.3689 0.5012 0.0000
vt 0.3669 0.3773 0.0000
vt 0.4000 0.3773 0.0000
vt 0.3439 0.5012 0.0000
vt 0.3404 0.3773 0.0000
vt 0.3125 0.5013 0.0000
vt 0.3073 0.3774 0.0000
vt 0.2733 0.5014 0.0000
vt 0.2714 0.3775 0.0000
# 18 texture coords

o MeguminStaff
g MeguminStaff
usemtl Megumin_staff
s off
f 1/1/1 2/2/2 3/3/3 4/4/4 
f 2/2/2 5/5/5 6/6/6 3/3/3 
f 5/5/5 7/7/7 8/8/8 6/6/6 
f 7/9/7 9/10/9 10/11/10 8/12/8 
f 9/10/9 11/13/11 12/14/12 10/11/10 
f 11/13/11 13/15/13 14/16/14 12/14/12 
f 13/15/13 15/17/15 16/18/16 14/16/14 
f 15/17/15 1/1/1 4/4/4 16/18/16 
# 8 polygons

